<svg id="front_edge" data-name="front, edge" xmlns="http://www.w3.org/2000/svg" viewBox="0 0 192 192"><defs><style>.cls-1{fill:#b2c6df;}.cls-1,.cls-2,.cls-3{fill-rule:evenodd;}.cls-2{fill:#86a5cd;}.cls-3{fill:#4977b0;}</style></defs><path class="cls-1" d="M96.86,107.1C73.32,103,55.43,82.87,55.43,58.71,55.43,31.57,78,9.54,105.79,9.54a50.61,50.61,0,0,1,6.9.47,86.44,86.44,0,0,1,13.66,3.81l.33.15-.33-.15A87.65,87.65,0,0,1,136,174a52.62,52.62,0,0,0-40-67Z"/><path class="cls-2" d="M84.56,106,84,106h.56Zm-15.85,2.81a52.61,52.61,0,0,1,14.15-2.75v0a38.25,38.25,0,0,0-35.37,36.58V143c0,.44,0,.88,0,1.32A38.36,38.36,0,0,0,74.2,181a87.62,87.62,0,0,1-41-23.84A52.65,52.65,0,0,1,68.8,108.77ZM85.65,106h.07A52.61,52.61,0,0,1,136,174a87.89,87.89,0,0,1-54.87,8.39A38.34,38.34,0,1,0,85.65,106Z"/><path class="cls-3" d="M116.44,58.19h0v.06h0Zm0,.11v.07l0-.09Zm0,.12h0v.05h0Zm0,.09h0v.05h0v-.05Zm0,.11v0Zm0,.16h0v0Zm0,.06h0v0h0v0h0Zm0,.19v0Zm0,.25h0v0Zm0,.09h0v0Zm-.09.4v0Zm0,.2v0Zm0,.1v0Zm0,.19h0Zm-.18.64Zm0,.09ZM25.24,132.37c-.1-1.39-.15-2.8-.15-4.21a56.9,56.9,0,0,1,1.65-13.66c.05-.21.11-.42.16-.63l0-.16,0-.2,0-.16c.13-.45.25-.9.38-1.34s.21-.68.32-1c.21-.68.44-1.36.68-2v0l.21-.58h0c.08-.2.15-.39.22-.59h0l.22-.57v0c.08-.19.15-.39.23-.58h0c.1-.26.21-.51.32-.77a55,55,0,0,1,2.47-5.06h0l.3-.54h0l.3-.54.06-.09.11-.18.1-.18.06-.1c.24-.4.48-.8.73-1.2l.08-.12L34,97.6l.1-.15.39-.6.23-.35.09-.12L35,96.1l.18-.27.09-.13.19-.28.17-.24c.08-.11.16-.21.23-.32l.18-.24.07-.1.25-.33.13-.18.37-.48.13-.17c.12-.17.25-.33.38-.49h0l.38-.48.13-.16.39-.47.14-.17c.13-.15.26-.31.4-.46l.14-.17.4-.46.14-.16.28-.3.14-.17c.14-.15.28-.29.41-.44l.16-.16c.13-.15.27-.29.41-.44l.16-.16.27-.29.21-.21.09-.09.28-.28.21-.21.1-.1.28-.27.21-.2.1-.1.16-.15.21-.2.12-.11.12-.1.24-.23.22-.2.3-.27.21-.18.11-.1.16-.14.23-.19.23-.21.26-.22.26-.21.12-.1.25-.21.24-.19.31-.25.22-.17.11-.09.17-.14.23-.17.25-.2.33-.24.21-.16.12-.09.27-.2L48.7,82l.15-.11.55-.4a56.76,56.76,0,0,1,8.71-5h0c.13-.07,1.84-.81,1.84-.81h0l3.09-1.18.09,0A56.44,56.44,0,0,1,81.7,71.36h.22A56.58,56.58,0,0,1,95.41,73h0a34.63,34.63,0,0,0,3.73.39h1.12l.21,0h.21l.2,0h.1l.2,0,.21,0,.24,0,.2,0,.23,0,.21,0,.21,0,.19,0,.2,0,.19,0,.2,0,.24-.06.19,0,.19,0,.19-.06.19,0,.24-.08.22-.07.2-.07.18-.07.19-.06.18-.07.18-.07.18-.08L106,72l.18-.07.14-.07.17-.07.17-.09.18-.08.17-.09.14-.07.16-.09.17-.09.17-.09.16-.09.37-.22.18-.11.15-.1.07,0,.38-.26.16-.11.15-.1.58-.44h0a17.66,17.66,0,0,0,3.67-3.9,22.21,22.21,0,0,0,2.92-7.79V58c0-.29.06-.58.08-.87v-.23a9.55,9.55,0,0,1-.1,1.19v.14h0v.25h0v.14h0v.08l0,.07v.16l0,.18,0,.11,0,.15,0,.11,0,.14,0-.09v-.09c-2.83,24.83-23.55,44.47-48.63,46.45,0,0,.18,0,0,0a34.83,34.83,0,0,0-33.68,26.47c0,.07,0,.14,0,.2l0,.08,0,.07,0,.14v0h0l0,.16v0c0,.17-.08.35-.11.53h0a34.9,34.9,0,0,0,11.76,33.91v0a88,88,0,0,1-12.14-10.4c0,.16.07.31.1.47l-.56-.94a90.39,90.39,0,0,1-7.51-8.94V132.37Z"/><path class="cls-3" d="M64.39,14.29A19,19,0,0,0,52.77,31.81v.53A19.11,19.11,0,0,0,53,35.57h-.11a54.28,54.28,0,0,1,2.5,16.31A54,54,0,0,1,40.35,89.36a58.35,58.35,0,0,1-3.21,5V124a40.24,40.24,0,0,0-4.59,18,34,34,0,0,0,4.59,17.1h0a33.81,33.81,0,0,0,3.27,4.68q-2.28-1.87-4.44-3.9l-.15-.14A87.64,87.64,0,0,1,10.2,114l-.07-.34-.06-.28-.05-.29L10,112.8l-.05-.29-.06-.29,0-.28-.05-.29-.07-.39,0-.28-.05-.27,0-.28,0-.27,0-.28,0-.28,0-.26-.12-.86-.05-.29,0-.29,0-.29,0-.29L9,107l0-.3,0-.29,0-.29,0-.44,0-.28,0-.28,0-.28,0-.28,0-.28,0-.28,0-.29,0-.29,0-.29,0-.3,0-.29,0-.29,0-.3,0-.29,0-.3,0-.29v-.3l0-.29v-.3l0-.29v-4.5l0-1.76v0a86.91,86.91,0,0,1,.76-9.34h0c0-.28.07-.56.11-.84h0l.09-.56,0-.28L9.48,82h0c0-.28.09-.56.14-.83h0c0-.28.09-.55.14-.82v0c0-.18.07-.36.11-.54l.05-.29c0-.18.07-.36.1-.54l.06-.29c0-.18.07-.35.11-.53l.06-.29.12-.54.06-.28.12-.54v0c0-.18.09-.35.13-.53l.07-.29.12-.52.07-.29c.05-.18.09-.35.14-.52l.07-.29c0-.17.09-.35.14-.52l.07-.29.15-.52v0l.15-.52.08-.29.15-.51.08-.29c0-.17.1-.34.16-.51l.08-.28c0-.17.11-.34.16-.51l.09-.28.16-.52v0c.06-.17.11-.34.17-.51l.09-.27c.06-.17.12-.34.17-.52l.1-.27.18-.51.09-.27c.06-.17.12-.34.19-.51h0c.09-.26.19-.51.28-.77h0c.09-.25.19-.51.29-.76h0l.3-.76h0A87.94,87.94,0,0,1,24.68,45.12h0l.47-.65h0l.32-.43.16-.23c.11-.14.21-.28.32-.41l.18-.24.3-.41.25-.32.1-.12.18-.23.23-.3.1-.12.18-.22.24-.3.09-.12.18-.22.25-.3.09-.12.22-.26.28-.34.25-.29.28-.33.26-.3.27-.32.18-.2.18-.21.27-.31.2-.22.34-.37.21-.23c.1-.12.21-.24.32-.35h0Q34.33,33.68,37.3,31h0c.69-.62,1.38-1.23,2.09-1.83h0q2.13-1.8,4.38-3.48h0A87.37,87.37,0,0,1,64.39,14.29Z"/><path class="cls-2" d="M131.47,22.6h0a17.49,17.49,0,0,0-11.9-11v0a86.94,86.94,0,0,1,15,5.73h0a88.15,88.15,0,0,1,37.48,35.15h0c.17.29.33.58.49.87l.17.3.18.32.17.31.23.43.16.29.09.19.09.17.11.2a87.14,87.14,0,0,1,9.9,40.35,52.56,52.56,0,0,0-25-44.67A52.85,52.85,0,0,1,131.47,22.6Z"/></svg>